Dinish-ExpandedBold.ufo
<glyph name="numbersign" format="2">
  <advance width="616"/>
  <unicode hex="0023"/>
  <outline>
    <contour>
      <point x="98" y="0" type="line"/>
      <point x="204" y="0" type="line"/>
      <point x="231" y="209" type="line"/>
      <point x="346" y="209" type="line"/>
      <point x="318" y="0" type="line"/>
      <point x="425" y="0" type="line"/>
      <point x="453" y="209" type="line"/>
      <point x="569" y="209" type="line"/>
      <point x="569" y="303" type="line"/>
      <point x="465" y="303" type="line"/>
      <point x="479" y="416" type="line"/>
      <point x="598" y="416" type="line"/>
      <point x="598" y="510" type="line"/>
      <point x="492" y="510" type="line"/>
      <point x="517" y="707" type="line"/>
      <point x="412" y="707" type="line"/>
      <point x="386" y="510" type="line"/>
      <point x="271" y="510" type="line"/>
      <point x="297" y="707" type="line"/>
      <point x="191" y="707" type="line"/>
      <point x="166" y="510" type="line"/>
      <point x="47" y="510" type="line"/>
      <point x="47" y="416" type="line"/>
      <point x="154" y="416" type="line"/>
      <point x="138" y="303" type="line"/>
      <point x="18" y="303" type="line"/>
      <point x="18" y="209" type="line"/>
      <point x="126" y="209" type="line"/>
    </contour>
    <contour>
      <point x="244" y="303" type="line"/>
      <point x="259" y="416" type="line"/>
      <point x="374" y="416" type="line"/>
      <point x="358" y="303" type="line"/>
    </contour>
  </outline>
</glyph>
<glyph name="dollar" format="2">
  <advance width="547"/>
  <unicode hex="0024"/>
  <outline>
    <contour>
      <point x="226" y="-61" type="line"/>
      <point x="317" y="-61" type="line"/>
      <point x="317" y="33" type="line"/>
      <point x="443.804" y="46.4898"/>
      <point x="515" y="116.966"/>
      <point x="515" y="229" type="curve" smooth="yes"/>
      <point x="515" y="332.788"/>
      <point x="456.942" y="393.196"/>
      <point x="342" y="409" type="curve" smooth="yes"/>
      <point x="262" y="420" type="line" smooth="yes"/>
      <point x="197.939" y="428.808"/>
      <point x="169" y="453.08"/>
      <point x="169" y="498" type="curve" smooth="yes"/>
      <point x="169" y="547.262"/>
      <point x="205.237" y="574"/>
      <point x="272" y="574" type="curve" smooth="yes"/>
      <point x="343.897" y="574"/>
      <point x="379.659" y="547.416"/>
      <point x="385" y="490" type="curve"/>
      <point x="505" y="490" type="line"/>
      <point x="497.027" y="600.296"/>
      <point x="430.716" y="666.96"/>
      <point x="317" y="679" type="curve"/>
      <point x="317" y="758" type="line"/>
      <point x="226" y="758" type="line"/>
      <point x="226" y="678" type="line"/>
      <point x="111.533" y="663.359"/>
      <point x="45" y="593.517"/>
      <point x="45" y="488" type="curve" smooth="yes"/>
      <point x="45" y="385.64"/>
      <point x="107.014" y="325.972"/>
      <point x="230" y="310" type="curve" smooth="yes"/>
      <point x="307" y="300" type="line" smooth="yes"/>
      <point x="365.066" y="292.459"/>
      <point x="390" y="268.426"/>
      <point x="390" y="220" type="curve" smooth="yes"/>
      <point x="390" y="167.038"/>
      <point x="350.193" y="139"/>
      <point x="275" y="139" type="curve" smooth="yes"/>
      <point x="191.43" y="139"/>
      <point x="153.914" y="166.046"/>
      <point x="146" y="232" type="curve"/>
      <point x="29" y="232" type="line"/>
      <point x="34.3158" y="115.053"/>
      <point x="104.264" y="44.0398"/>
      <point x="226" y="32" type="curve"/>
    </contour>
  </outline>
</glyph>
<glyph name="parenright" format="2">
  <advance width="330"/>
  <unicode hex="0029"/>
  <outline>
    <contour>
      <point x="141" y="-86" type="line"/>
      <point x="235.843" y="35.5591"/>
      <point x="285" y="179.958"/>
      <point x="285" y="337" type="curve" smooth="yes"/>
      <point x="285" y="494.43"/>
      <point x="235.416" y="638.394"/>
      <point x="140" y="758" type="curve"/>
      <point x="47" y="758" type="line"/>
      <point x="120.259" y="635.457"/>
      <point x="159" y="489.488"/>
      <point x="159" y="336" type="curve" smooth="yes"/>
      <point x="159" y="185.279"/>
      <point x="120.018" y="38.4017"/>
      <point x="47" y="-86" type="curve"/>
    </contour>
  </outline>
</glyph>
<glyph name="four" format="2">
  <advance width="590"/>
  <unicode hex="0034"/>
  <outline>
    <contour>
      <point x="40" y="113" type="line"/>
      <point x="360" y="113" type="line"/>
      <point x="360" y="0" type="line"/>
      <point x="495" y="0" type="line"/>
      <point x="495" y="113" type="line"/>
      <point x="559" y="113" type="line"/>
      <point x="559" y="230" type="line"/>
      <point x="495" y="230" type="line"/>
      <point x="495" y="396" type="line"/>
      <point x="360" y="396" type="line"/>
      <point x="360" y="230" type="line"/>
      <point x="176" y="230" type="line"/>
      <point x="403" y="707" type="line"/>
      <point x="266" y="707" type="line"/>
      <point x="40" y="230" type="line"/>
    </contour>
  </outline>
</glyph>
<glyph name="five" format="2">
  <advance width="560"/>
  <unicode hex="0035"/>
  <outline>
    <contour>
      <point x="56" y="178" type="line"/>
      <point x="56" y="170" type="line" smooth="yes"/>
      <point x="56" y="58.6428"/>
      <point x="142.188" y="-11"/>
      <point x="280" y="-11" type="curve" smooth="yes"/>
      <point x="427.412" y="-11"/>
      <point x="514" y="70.7778"/>
      <point x="514" y="210" type="curve" smooth="yes"/>
      <point x="514" y="249" type="line" smooth="yes"/>
      <point x="514" y="385.137"/>
      <point x="438.204" y="465"/>
      <point x="309" y="465" type="curve" smooth="yes"/>
      <point x="259.667" y="465"/>
      <point x="218" y="452.333"/>
      <point x="184" y="427" type="curve"/>
      <point x="184" y="592" type="line"/>
      <point x="493" y="592" type="line"/>
      <point x="493" y="707" type="line"/>
      <point x="69" y="707" type="line"/>
      <point x="69" y="304" type="line"/>
      <point x="186" y="304" type="line"/>
      <point x="203.687" y="336.653"/>
      <point x="237.863" y="355"/>
      <point x="281" y="355" type="curve" smooth="yes"/>
      <point x="346.423" y="355"/>
      <point x="382" y="315.901"/>
      <point x="382" y="244" type="curve" smooth="yes"/>
      <point x="382" y="212" type="line" smooth="yes"/>
      <point x="382" y="141.03"/>
      <point x="346.164" y="102"/>
      <point x="281" y="102" type="curve" smooth="yes"/>
      <point x="222.926" y="102"/>
      <point x="184" y="130.893"/>
      <point x="184" y="174" type="curve" smooth="yes"/>
      <point x="184" y="178" type="line"/>
    </contour>
  </outline>
</glyph>
<glyph name="A" format="2">
  <advance width="697"/>
  <unicode hex="0041"/>
  <anchor x="348" y="776" name="top"/>
  <anchor x="348" y="651" name="t.ring"/>
  <anchor x="348" y="-86" name="bottom"/>
  <anchor x="686" y="0" name="b.cedilla"/>
  <outline>
    <contour>
      <point x="4" y="0" type="line"/>
      <point x="147" y="0" type="line"/>
      <point x="199" y="137" type="line"/>
      <point x="499" y="137" type="line"/>
      <point x="550" y="0" type="line"/>
      <point x="693" y="0" type="line"/>
      <point x="403" y="707" type="line"/>
      <point x="294" y="707" type="line"/>
    </contour>
    <contour>
      <point x="241" y="249" type="line"/>
      <point x="348" y="537" type="line"/>
      <point x="457" y="249" type="line"/>
    </contour>
  </outline>
  <guideline angle="90" name="h1" x="348" y="0"/>
</glyph>
<glyph name="B" format="2">
  <advance width="669"/>
  <unicode hex="0042"/>
  <anchor x="296" y="776" name="top"/>
  <anchor x="298" y="-86" name="bottom"/>
  <outline>
    <contour>
      <point x="139.82" y="0" type="line"/>
      <point x="380" y="0" type="line" smooth="yes"/>
      <point x="536.394" y="0"/>
      <point x="624" y="72.8852"/>
      <point x="624" y="203" type="curve" smooth="yes"/>
      <point x="624" y="278.378"/>
      <point x="585.267" y="334.558"/>
      <point x="513" y="364" type="curve"/>
      <point x="576.296" y="391.692"/>
      <point x="613" y="445.28"/>
      <point x="613" y="510" type="curve" smooth="yes"/>
      <point x="613" y="637.398"/>
      <point x="526.086" y="707"/>
      <point x="367" y="707" type="curve" smooth="yes"/>
      <point x="139.82" y="707" type="line"/>
      <point x="139.82" y="590" type="line"/>
      <point x="373" y="590" type="line" smooth="yes"/>
      <point x="443.667" y="590"/>
      <point x="479" y="560.667"/>
      <point x="479" y="502" type="curve" smooth="yes"/>
      <point x="479" y="445.996"/>
      <point x="442.667" y="418"/>
      <point x="368" y="418" type="curve" smooth="yes"/>
      <point x="139.82" y="418" type="line"/>
      <point x="139.82" y="301" type="line"/>
      <point x="377" y="301" type="line" smooth="yes"/>
      <point x="452.333" y="301"/>
      <point x="490" y="271.333"/>
      <point x="490" y="212" type="curve" smooth="yes"/>
      <point x="490" y="148.667"/>
      <point x="454" y="117"/>
      <point x="382" y="117" type="curve" smooth="yes"/>
      <point x="139.82" y="117" type="line"/>
    </contour>
    <contour>
      <point x="60" y="0" type="line"/>
      <point x="195" y="-0.0528" type="line"/>
      <point x="195" y="707.188" type="line"/>
      <point x="60" y="707" type="line"/>
    </contour>
  </outline>
  <guideline angle="90" name="h1" x="296" y="0"/>
</glyph>
<glyph name="D" format="2">
  <advance width="677"/>
  <unicode hex="0044"/>
  <anchor x="296" y="776" name="top"/>
  <anchor x="298" y="-86" name="bottom"/>
  <outline>
    <contour>
      <point x="60" y="0" type="line"/>
      <point x="331" y="0" type="line" smooth="yes"/>
      <point x="528.609" y="0"/>
      <point x="632" y="106.483"/>
      <point x="632" y="310" type="curve" smooth="yes"/>
      <point x="632" y="397" type="line" smooth="yes"/>
      <point x="632" y="600.779"/>
      <point x="530.576" y="707"/>
      <point x="336" y="707" type="curve" smooth="yes"/>
      <point x="60" y="707" type="line"/>
    </contour>
    <contour>
      <point x="195" y="117" type="line"/>
      <point x="195" y="590" type="line"/>
      <point x="335" y="590" type="line" smooth="yes"/>
      <point x="446.84" y="590"/>
      <point x="498" y="527.227"/>
      <point x="498" y="390" type="curve" smooth="yes"/>
      <point x="498" y="310" type="line" smooth="yes"/>
      <point x="498" y="177.816"/>
      <point x="446.637" y="117"/>
      <point x="335" y="117" type="curve" smooth="yes"/>
    </contour>
  </outline>
  <guideline angle="90" name="h1" x="296" y="0"/>
</glyph>
<glyph name="K" format="2">
  <advance width="694"/>
  <unicode hex="004B"/>
  <anchor x="344" y="776" name="top"/>
  <anchor x="330" y="-86" name="bottom"/>
  <outline>
    <contour>
      <point x="60" y="0" type="line"/>
      <point x="195" y="0" type="line"/>
      <point x="195" y="197" type="line"/>
      <point x="314" y="326" type="line"/>
      <point x="525" y="0" type="line"/>
      <point x="688" y="0" type="line"/>
      <point x="404" y="422" type="line"/>
      <point x="668" y="707" type="line"/>
      <point x="496" y="707" type="line"/>
      <point x="195" y="364" type="line"/>
      <point x="195" y="707" type="line"/>
      <point x="60" y="707" type="line"/>
    </contour>
  </outline>
  <guideline angle="90" name="h1" x="344" y="0"/>
</glyph>
<glyph name="N" format="2">
  <advance width="715"/>
  <unicode hex="004E"/>
  <anchor x="350" y="776" name="top"/>
  <anchor x="350" y="-86" name="bottom"/>
  <outline>
    <contour>
      <point x="60" y="0" type="line"/>
      <point x="195" y="0" type="line"/>
      <point x="195" y="468" type="line"/>
      <point x="521" y="0" type="line"/>
      <point x="655" y="0" type="line"/>
      <point x="655" y="707" type="line"/>
      <point x="521" y="707" type="line"/>
      <point x="521" y="238" type="line"/>
      <point x="195" y="707" type="line"/>
      <point x="60" y="707" type="line"/>
    </contour>
  </outline>
  <guideline angle="90" name="h1" x="350" y="0"/>
</glyph>
<glyph name="O" format="2">
  <advance width="689"/>
  <unicode hex="004F"/>
  <anchor x="350" y="776" name="top"/>
  <anchor x="350" y="-86" name="bottom"/>
  <anchor x="281" y="0" name="b.cedilla"/>
  <outline>
    <contour>
      <point x="347" y="-11" type="curve" smooth="yes"/>
      <point x="536.363" y="-11"/>
      <point x="643" y="100.68"/>
      <point x="643" y="299" type="curve" smooth="yes"/>
      <point x="643" y="410" type="line" smooth="yes"/>
      <point x="643" y="608.922"/>
      <point x="538.372" y="720"/>
      <point x="351" y="720" type="curve" smooth="yes"/>
      <point x="160.667" y="720"/>
      <point x="56" y="610.011"/>
      <point x="56" y="410" type="curve" smooth="yes"/>
      <point x="56" y="299" type="line" smooth="yes"/>
      <point x="56" y="98.7347"/>
      <point x="159.009" y="-11"/>
    </contour>
    <contour>
      <point x="351" y="110" type="curve" smooth="yes"/>
      <point x="242.829" y="110"/>
      <point x="191" y="171.871"/>
      <point x="191" y="301" type="curve" smooth="yes"/>
      <point x="191" y="402" type="line" smooth="yes"/>
      <point x="191" y="537.5"/>
      <point x="242.6" y="602"/>
      <point x="351" y="602" type="curve" smooth="yes"/>
      <point x="456.333" y="602"/>
      <point x="509" y="535.333"/>
      <point x="509" y="402" type="curve" smooth="yes"/>
      <point x="509" y="301" type="line" smooth="yes"/>
      <point x="509" y="173.667"/>
      <point x="456.333" y="110"/>
    </contour>
  </outline>
  <guideline angle="90" name="h1" x="350" y="0"/>
</glyph>
<glyph name="S" format="2">
  <advance width="622"/>
  <unicode hex="0053"/>
  <anchor x="301" y="776" name="top"/>
  <anchor x="287" y="0" name="b.cedilla"/>
  <anchor x="301" y="-86" name="bottom"/>
  <outline>
    <contour>
      <point x="29" y="215" type="line"/>
      <point x="39.7679" y="70.9795"/>
      <point x="136.602" y="-6"/>
      <point x="307" y="-6" type="curve" smooth="yes"/>
      <point x="486.224" y="-6"/>
      <point x="591" y="75.1643"/>
      <point x="591" y="214" type="curve" smooth="yes"/>
      <point x="591" y="327.426"/>
      <point x="520.819" y="395.553"/>
      <point x="386" y="413" type="curve" smooth="yes"/>
      <point x="301" y="424" type="line" smooth="yes"/>
      <point x="213.678" y="435.3"/>
      <point x="176" y="462.429"/>
      <point x="176" y="514" type="curve" smooth="yes"/>
      <point x="176" y="572.667"/>
      <point x="222.652" y="604"/>
      <point x="310" y="604" type="curve" smooth="yes"/>
      <point x="399.531" y="604"/>
      <point x="441.678" y="573.85"/>
      <point x="447" y="506" type="curve"/>
      <point x="577" y="506" type="line"/>
      <point x="564.93" y="642.791"/>
      <point x="472.081" y="717"/>
      <point x="313" y="717" type="curve" smooth="yes"/>
      <point x="148.37" y="717"/>
      <point x="46" y="635.334"/>
      <point x="46" y="504" type="curve" smooth="yes"/>
      <point x="46" y="389.561"/>
      <point x="118.118" y="323.146"/>
      <point x="261" y="306" type="curve" smooth="yes"/>
      <point x="336" y="297" type="line" smooth="yes"/>
      <point x="423.293" y="286.525"/>
      <point x="459" y="259.527"/>
      <point x="459" y="204" type="curve" smooth="yes"/>
      <point x="458.333" y="140.667"/>
      <point x="410" y="109"/>
      <point x="314" y="109" type="curve" smooth="yes"/>
      <point x="214.704" y="109"/>
      <point x="166.152" y="141.78"/>
      <point x="157" y="215" type="curve"/>
    </contour>
  </outline>
  <guideline angle="90" name="h1" x="301" y="0"/>
</glyph>
<glyph name="U" format="2">
  <advance width="692"/>
  <unicode hex="0055"/>
  <anchor x="345" y="776" name="top"/>
  <anchor x="345" y="-86" name="bottom"/>
  <anchor x="408" y="0" name="b.cedilla"/>
  <outline>
    <contour>
      <point x="60" y="707" type="line"/>
      <point x="60" y="254" type="line" smooth="yes"/>
      <point x="60" y="96.5492"/>
      <point x="172.41" y="-6"/>
      <point x="345" y="-6" type="curve" smooth="yes"/>
      <point x="519.409" y="-6"/>
      <point x="632" y="95.9988"/>
      <point x="632" y="254" type="curve" smooth="yes"/>
      <point x="632" y="707" type="line"/>
      <point x="498" y="707" type="line"/>
      <point x="498" y="258" type="line" smooth="yes"/>
      <point x="498" y="163.242"/>
      <point x="443.626" y="111"/>
      <point x="345" y="111" type="curve" smooth="yes"/>
      <point x="247.354" y="111"/>
      <point x="194" y="162.307"/>
      <point x="194" y="258" type="curve" smooth="yes"/>
      <point x="194" y="707" type="line"/>
    </contour>
  </outline>
  <guideline angle="90" name="h1" x="345" y="0"/>
</glyph>
<glyph name="bracketright" format="2">
  <advance width="350"/>
  <unicode hex="005D"/>
  <outline>
    <contour>
      <point x="47" y="-86" type="line"/>
      <point x="290" y="-86" type="line"/>
      <point x="290" y="757" type="line"/>
      <point x="47" y="757" type="line"/>
      <point x="47" y="640" type="line"/>
      <point x="163" y="640" type="line"/>
      <point x="163" y="32" type="line"/>
      <point x="47" y="32" type="line"/>
    </contour>
  </outline>
</glyph>
<glyph name="d" format="2">
  <advance width="584"/>
  <unicode hex="0064"/>
  <anchor x="270" y="590" name="top"/>
  <anchor x="270" y="-86" name="bottom"/>
  <outline>
    <contour>
      <point x="406" y="0" type="line"/>
      <point x="529" y="0" type="line"/>
      <point x="529" y="707" type="line"/>
      <point x="403" y="707" type="line"/>
      <point x="403" y="475" type="line"/>
      <point x="365.667" y="519.667"/>
      <point x="315.667" y="542"/>
      <point x="253" y="542" type="curve" smooth="yes"/>
      <point x="127.023" y="542"/>
      <point x="47" y="447.993"/>
      <point x="47" y="300" type="curve" smooth="yes"/>
      <point x="47" y="233" type="line" smooth="yes"/>
      <point x="47" y="82.7183"/>
      <point x="125.832" y="-9"/>
      <point x="255" y="-9" type="curve" smooth="yes"/>
      <point x="321.003" y="-9"/>
      <point x="371.333" y="12.3333"/>
      <point x="406" y="57" type="curve"/>
    </contour>
    <contour>
      <point x="284" y="104" type="curve" smooth="yes"/>
      <point x="211.728" y="104"/>
      <point x="174" y="150.303"/>
      <point x="174" y="239" type="curve" smooth="yes"/>
      <point x="174" y="294" type="line" smooth="yes"/>
      <point x="174" y="382.342"/>
      <point x="213.054" y="429"/>
      <point x="287" y="429" type="curve" smooth="yes"/>
      <point x="359.954" y="429"/>
      <point x="403" y="380.759"/>
      <point x="403" y="299" type="curve" smooth="yes"/>
      <point x="403" y="231" type="line" smooth="yes"/>
      <point x="403" y="152.367"/>
      <point x="357.679" y="104"/>
    </contour>
  </outline>
  <guideline angle="90" name="vertical" x="270" y="0"/>
  <guideline angle="0" name="horizontal" x="0" y="590"/>
</glyph>
<glyph name="e" format="2">
  <advance width="584"/>
  <unicode hex="0065"/>
  <anchor x="293" y="602" name="top"/>
  <anchor x="293" y="-86" name="bottom"/>
  <anchor x="377" y="0" name="b.cedilla"/>
  <outline>
    <contour>
      <point x="173" y="231" type="line"/>
      <point x="539" y="231" type="line"/>
      <point x="539" y="293" type="line" smooth="yes"/>
      <point x="539" y="450.602"/>
      <point x="448.703" y="542"/>
      <point x="293" y="542" type="curve" smooth="yes"/>
      <point x="136.937" y="542"/>
      <point x="47" y="449.87"/>
      <point x="47" y="290" type="curve" smooth="yes"/>
      <point x="47" y="244" type="line" smooth="yes"/>
      <point x="47" y="82.3545"/>
      <point x="137.993" y="-9"/>
      <point x="299" y="-9" type="curve" smooth="yes"/>
      <point x="434.461" y="-9"/>
      <point x="534" y="57.9606"/>
      <point x="534" y="161" type="curve" smooth="yes"/>
      <point x="534" y="167" type="line"/>
      <point x="410" y="167" type="line"/>
      <point x="410" y="164" type="line" smooth="yes"/>
      <point x="410" y="123.899"/>
      <point x="363.333" y="101"/>
      <point x="304" y="101" type="curve" smooth="yes"/>
      <point x="216.667" y="101"/>
      <point x="173" y="142.667"/>
      <point x="173" y="228" type="curve" smooth="yes"/>
    </contour>
    <contour>
      <point x="173" y="318" type="line"/>
      <point x="173" y="321" type="line" smooth="yes"/>
      <point x="173" y="393.037"/>
      <point x="215.817" y="433"/>
      <point x="293" y="433" type="curve" smooth="yes"/>
      <point x="368.296" y="433"/>
      <point x="412" y="393.703"/>
      <point x="412" y="326" type="curve" smooth="yes"/>
      <point x="412" y="318" type="line"/>
    </contour>
  </outline>
  <guideline angle="90" name="h1" x="293" y="0"/>
</glyph>
<glyph name="f" format="2">
  <advance width="376"/>
  <unicode hex="0066"/>
  <anchor x="197" y="776" name="top"/>
  <anchor x="236" y="-86" name="bottom"/>
  <outline>
    <contour>
      <point x="109" y="0" type="line"/>
      <point x="234" y="0" type="line"/>
      <point x="234" y="443" type="line"/>
      <point x="349" y="443" type="line"/>
      <point x="349" y="532" type="line"/>
      <point x="234" y="532" type="line"/>
      <point x="234" y="559" type="line" smooth="yes"/>
      <point x="234" y="603.301"/>
      <point x="253.412" y="621"/>
      <point x="302" y="621" type="curve" smooth="yes"/>
      <point x="349" y="621" type="line"/>
      <point x="349" y="707" type="line"/>
      <point x="266" y="707" type="line" smooth="yes"/>
      <point x="162.009" y="707"/>
      <point x="109" y="655.342"/>
      <point x="109" y="554" type="curve" smooth="yes"/>
      <point x="109" y="532" type="line"/>
      <point x="37" y="532" type="line"/>
      <point x="37" y="443" type="line"/>
      <point x="109" y="443" type="line"/>
    </contour>
  </outline>
  <guideline angle="90" name="h1" x="197" y="0"/>
</glyph>
<glyph name="g" format="2">
  <advance width="584"/>
  <unicode hex="0067"/>
  <anchor x="272" y="602" name="top"/>
  <anchor x="236" y="-86" name="bottom"/>
  <outline>
    <contour>
      <point x="59" y="-11" type="line"/>
      <point x="62.9167" y="-111.529"/>
      <point x="142.408" y="-168"/>
      <point x="280" y="-168" type="curve" smooth="yes"/>
      <point x="435.263" y="-168"/>
      <point x="529" y="-86.3092"/>
      <point x="529" y="49" type="curve" smooth="yes"/>
      <point x="529" y="532" type="line"/>
      <point x="404" y="532" type="line"/>
      <point x="404" y="475" type="line"/>
      <point x="365.333" y="519.667"/>
      <point x="315" y="542"/>
      <point x="253" y="542" type="curve" smooth="yes"/>
      <point x="126.464" y="542"/>
      <point x="47" y="451.735"/>
      <point x="47" y="308" type="curve" smooth="yes"/>
      <point x="47" y="267" type="line" smooth="yes"/>
      <point x="47" y="119.596"/>
      <point x="125.633" y="30"/>
      <point x="255" y="30" type="curve" smooth="yes"/>
      <point x="320.333" y="29.3333"/>
      <point x="370" y="51.3333"/>
      <point x="404" y="96" type="curve"/>
      <point x="404" y="41" type="line"/>
      <point x="404.667" y="-31.6667"/>
      <point x="365.333" y="-68"/>
      <point x="286" y="-68" type="curve" smooth="yes"/>
      <point x="227.509" y="-68"/>
      <point x="190.58" y="-47.9532"/>
      <point x="181" y="-11" type="curve"/>
    </contour>
    <contour>
      <point x="284" y="143" type="curve" smooth="yes"/>
      <point x="211.049" y="143"/>
      <point x="174" y="186.448"/>
      <point x="174" y="272" type="curve" smooth="yes"/>
      <point x="174" y="302" type="line" smooth="yes"/>
      <point x="174" y="385.399"/>
      <point x="212.451" y="429"/>
      <point x="286" y="429" type="curve" smooth="yes"/>
      <point x="357.803" y="429"/>
      <point x="403" y="381.872"/>
      <point x="403" y="307" type="curve" smooth="yes"/>
      <point x="403" y="265" type="line" smooth="yes"/>
      <point x="403" y="190.076"/>
      <point x="357.082" y="143"/>
    </contour>
  </outline>
  <guideline angle="90" name="h1" x="272" y="0"/>
</glyph>
<glyph name="h" format="2">
  <advance width="585"/>
  <unicode hex="0068"/>
  <anchor x="313" y="776" name="top"/>
  <anchor x="316" y="-86" name="bottom"/>
  <outline>
    <contour>
      <point x="55" y="0" type="line"/>
      <point x="182" y="0" type="line"/>
      <point x="182" y="301" type="line" smooth="yes"/>
      <point x="182" y="381.793"/>
      <point x="223.024" y="426"/>
      <point x="298" y="426" type="curve" smooth="yes"/>
      <point x="368" y="426"/>
      <point x="403" y="386"/>
      <point x="403" y="306" type="curve" smooth="yes"/>
      <point x="403" y="0" type="line"/>
      <point x="530" y="0" type="line"/>
      <point x="530" y="332" type="line" smooth="yes"/>
      <point x="530" y="462.777"/>
      <point x="458.564" y="539"/>
      <point x="336" y="539" type="curve" smooth="yes"/>
      <point x="273.481" y="539"/>
      <point x="218.639" y="516.564"/>
      <point x="182" y="476" type="curve"/>
      <point x="182" y="707" type="line"/>
      <point x="55" y="707" type="line"/>
    </contour>
  </outline>
  <guideline angle="90" name="h1" x="313" y="0"/>
</glyph>
<glyph name="j" format="2">
  <advance width="246"/>
  <unicode hex="006A"/>
  <outline>
    <contour>
      <point x="60" y="608" type="line"/>
      <point x="186" y="608" type="line"/>
      <point x="186" y="710" type="line"/>
      <point x="60" y="710" type="line"/>
    </contour>
    <contour>
      <point x="-61" y="-160" type="line"/>
      <point x="5" y="-160" type="line" smooth="yes"/>
      <point x="128.736" y="-160"/>
      <point x="186" y="-105.584"/>
      <point x="186" y="12" type="curve" smooth="yes"/>
      <point x="186" y="532" type="line"/>
      <point x="60" y="532" type="line"/>
      <point x="60" y="20" type="line" smooth="yes"/>
      <point x="60" y="-32.8493"/>
      <point x="42.1143" y="-50"/>
      <point x="-13" y="-50" type="curve" smooth="yes"/>
      <point x="-61" y="-50" type="line"/>
    </contour>
  </outline>
</glyph>
<glyph name="m" format="2">
  <advance width="917"/>
  <unicode hex="006D"/>
  <anchor x="459" y="602" name="top"/>
  <anchor x="236" y="-86" name="bottom"/>
  <outline>
    <contour>
      <point x="55" y="0" type="line"/>
      <point x="182" y="0" type="line"/>
      <point x="182" y="301" type="line" smooth="yes"/>
      <point x="182" y="380.435"/>
      <point x="222.827" y="426"/>
      <point x="294" y="426" type="curve" smooth="yes"/>
      <point x="360.041" y="426"/>
      <point x="395" y="386.195"/>
      <point x="395" y="311" type="curve" smooth="yes"/>
      <point x="395" y="0" type="line"/>
      <point x="522" y="0" type="line"/>
      <point x="522" y="303" type="line" smooth="yes"/>
      <point x="522" y="380.081"/>
      <point x="563.439" y="426"/>
      <point x="633" y="426" type="curve" smooth="yes"/>
      <point x="699.767" y="426"/>
      <point x="735" y="384.549"/>
      <point x="735" y="306" type="curve" smooth="yes"/>
      <point x="735" y="0" type="line"/>
      <point x="862" y="0" type="line"/>
      <point x="862" y="332" type="line" smooth="yes"/>
      <point x="862" y="462"/>
      <point x="785" y="539"/>
      <point x="655" y="539" type="curve" smooth="yes"/>
      <point x="586.333" y="539"/>
      <point x="529.333" y="515"/>
      <point x="484" y="467" type="curve"/>
      <point x="450.353" y="513.588"/>
      <point x="396" y="539"/>
      <point x="330" y="539" type="curve" smooth="yes"/>
      <point x="271.24" y="539"/>
      <point x="215.448" y="515.353"/>
      <point x="179" y="475" type="curve"/>
      <point x="179" y="532" type="line"/>
      <point x="55" y="532" type="line"/>
    </contour>
  </outline>
  <guideline angle="90" name="h1" x="459" y="0"/>
</glyph>
<glyph name="p" format="2">
  <advance width="584"/>
  <unicode hex="0070"/>
  <anchor x="304" y="602" name="top"/>
  <anchor x="236" y="-86" name="bottom"/>
  <outline>
    <contour>
      <point x="55" y="-160" type="line"/>
      <point x="182" y="-160" type="line"/>
      <point x="182" y="54" type="line"/>
      <point x="217" y="12"/>
      <point x="267" y="-9"/>
      <point x="330" y="-9" type="curve" smooth="yes"/>
      <point x="456" y="-9"/>
      <point x="539" y="89"/>
      <point x="539" y="237" type="curve" smooth="yes"/>
      <point x="539" y="303" type="line" smooth="yes"/>
      <point x="539" y="453"/>
      <point x="462" y="542"/>
      <point x="331" y="542" type="curve" smooth="yes"/>
      <point x="269" y="542"/>
      <point x="218" y="519"/>
      <point x="179" y="472" type="curve"/>
      <point x="179" y="532" type="line"/>
      <point x="55" y="532" type="line"/>
    </contour>
    <contour>
      <point x="300" y="104" type="curve" smooth="yes"/>
      <point x="228" y="104"/>
      <point x="182" y="154"/>
      <point x="182" y="231" type="curve" smooth="yes"/>
      <point x="182" y="299" type="line" smooth="yes"/>
      <point x="182" y="380"/>
      <point x="226" y="429"/>
      <point x="298" y="429" type="curve" smooth="yes"/>
      <point x="374" y="429"/>
      <point x="412" y="385"/>
      <point x="412" y="297" type="curve" smooth="yes"/>
      <point x="412" y="242" type="line" smooth="yes"/>
      <point x="412" y="153"/>
      <point x="373" y="104"/>
    </contour>
  </outline>
  <guideline angle="90" name="h1" x="304" y="0"/>
</glyph>
<glyph name="s" format="2">
  <advance width="538"/>
  <unicode hex="0073"/>
  <anchor x="267" y="602" name="top"/>
  <anchor x="234" y="0" name="b.cedilla"/>
  <anchor x="267" y="-86" name="bottom"/>
  <outline>
    <contour>
      <point x="38" y="167" type="line"/>
      <point x="38" y="164" type="line" smooth="yes"/>
      <point x="38" y="58.4259"/>
      <point x="124.786" y="-6"/>
      <point x="267" y="-6" type="curve" smooth="yes"/>
      <point x="418.337" y="-6"/>
      <point x="506" y="56.7211"/>
      <point x="506" y="165" type="curve" smooth="yes"/>
      <point x="506" y="254.467"/>
      <point x="446.395" y="302.419"/>
      <point x="326" y="318" type="curve" smooth="yes"/>
      <point x="241" y="329" type="line" smooth="yes"/>
      <point x="188.291" y="335.821"/>
      <point x="165" y="350.272"/>
      <point x="165" y="382" type="curve" smooth="yes"/>
      <point x="165" y="420.039"/>
      <point x="198.93" y="439"/>
      <point x="267" y="439" type="curve" smooth="yes"/>
      <point x="340.746" y="439"/>
      <point x="378" y="417.856"/>
      <point x="378" y="376" type="curve" smooth="yes"/>
      <point x="378" y="373" type="line"/>
      <point x="496" y="373" type="line"/>
      <point x="496" y="377" type="line" smooth="yes"/>
      <point x="496" y="477.877"/>
      <point x="409.975" y="539"/>
      <point x="268" y="539" type="curve" smooth="yes"/>
      <point x="128.473" y="539"/>
      <point x="46" y="477.703"/>
      <point x="46" y="374" type="curve" smooth="yes"/>
      <point x="46" y="283.341"/>
      <point x="100.865" y="235.686"/>
      <point x="221" y="222" type="curve" smooth="yes"/>
      <point x="300" y="213" type="line" smooth="yes"/>
      <point x="360.576" y="206.099"/>
      <point x="385" y="190.008"/>
      <point x="385" y="157" type="curve" smooth="yes"/>
      <point x="385" y="117.216"/>
      <point x="346.393" y="96"/>
      <point x="274" y="96" type="curve" smooth="yes"/>
      <point x="199.159" y="96"/>
      <point x="157" y="119.863"/>
      <point x="157" y="164" type="curve" smooth="yes"/>
      <point x="157" y="167" type="line"/>
    </contour>
  </outline>
  <guideline angle="90" name="h1" x="267" y="0"/>
</glyph>
<glyph name="y" format="2">
  <advance width="552"/>
  <unicode hex="0079"/>
  <anchor x="278" y="602" name="top"/>
  <anchor x="437" y="-115" name="dot"/>
  <anchor x="236" y="-86" name="bottom"/>
  <anchor x="278" y="588" name="t.ring"/>
  <outline>
    <contour>
      <point x="87" y="-158" type="line"/>
      <point x="136" y="-158" type="line" smooth="yes"/>
      <point x="230.698" y="-158"/>
      <point x="286.599" y="-123.409"/>
      <point x="317" y="-46" type="curve" smooth="yes"/>
      <point x="544" y="532" type="line"/>
      <point x="412" y="532" type="line"/>
      <point x="285" y="176" type="line"/>
      <point x="146" y="532" type="line"/>
      <point x="9" y="532" type="line"/>
      <point x="226" y="11" type="line"/>
      <point x="223" y="2" type="line" smooth="yes"/>
      <point x="210.948" y="-34.1562"/>
      <point x="191.696" y="-44"/>
      <point x="142" y="-44" type="curve" smooth="yes"/>
      <point x="87" y="-44" type="line"/>
    </contour>
  </outline>
  <guideline angle="90" name="h1" x="278" y="0"/>
</glyph>
<glyph name="braceleft" format="2">
  <advance width="407"/>
  <unicode hex="007B"/>
  <outline>
    <contour>
      <point x="362" y="-86" type="line"/>
      <point x="362" y="16" type="line"/>
      <point x="321" y="16" type="line" smooth="yes"/>
      <point x="274.242" y="16"/>
      <point x="257" y="29.7396"/>
      <point x="257" y="67" type="curve" smooth="yes"/>
      <point x="257" y="208" type="line" smooth="yes"/>
      <point x="257" y="283.611"/>
      <point x="237.269" y="319.237"/>
      <point x="185" y="338" type="curve"/>
      <point x="237.269" y="356.763"/>
      <point x="257" y="392.389"/>
      <point x="257" y="468" type="curve" smooth="yes"/>
      <point x="257" y="605" type="line" smooth="yes"/>
      <point x="257" y="641.896"/>
      <point x="273.773" y="655"/>
      <point x="321" y="655" type="curve" smooth="yes"/>
      <point x="362" y="655" type="line"/>
      <point x="362" y="758" type="line"/>
      <point x="281" y="758" type="line" smooth="yes"/>
      <point x="185" y="758"/>
      <point x="137" y="714.667"/>
      <point x="137" y="628" type="curve" smooth="yes"/>
      <point x="137" y="474" type="line" smooth="yes"/>
      <point x="137" y="414.362"/>
      <point x="111.911" y="392"/>
      <point x="45" y="392" type="curve"/>
      <point x="45" y="284" type="line"/>
      <point x="111.911" y="284"/>
      <point x="137" y="261.638"/>
      <point x="137" y="202" type="curve" smooth="yes"/>
      <point x="137" y="45" type="line" smooth="yes"/>
      <point x="137" y="-42.3333"/>
      <point x="185" y="-86"/>
      <point x="281" y="-86" type="curve" smooth="yes"/>
    </contour>
  </outline>
</glyph>
<glyph name="currency" format="2">
  <advance width="609"/>
  <unicode hex="00A4"/>
  <outline>
    <contour>
      <point x="130" y="77" type="line"/>
      <point x="197" y="143" type="line"/>
      <point x="229" y="124.333"/>
      <point x="264.667" y="115"/>
      <point x="304" y="115" type="curve" smooth="yes"/>
      <point x="344.006" y="115"/>
      <point x="380" y="123.667"/>
      <point x="412" y="143" type="curve"/>
      <point x="479" y="76" type="line"/>
      <point x="554" y="151" type="line"/>
      <point x="486" y="218" type="line"/>
      <point x="504" y="250"/>
      <point x="513" y="285.333"/>
      <point x="513" y="324" type="curve" smooth="yes"/>
      <point x="513" y="360.667"/>
      <point x="503.667" y="395.333"/>
      <point x="485" y="428" type="curve"/>
      <point x="553" y="497" type="line"/>
      <point x="479" y="571" type="line"/>
      <point x="411" y="504" type="line"/>
      <point x="377.667" y="522"/>
      <point x="342" y="531"/>
      <point x="304" y="531" type="curve" smooth="yes"/>
      <point x="265.994" y="531"/>
      <point x="230.667" y="522.667"/>
      <point x="198" y="504" type="curve"/>
      <point x="130" y="571" type="line"/>
      <point x="55" y="497" type="line"/>
      <point x="124" y="428" type="line"/>
      <point x="105.333" y="395.333"/>
      <point x="96" y="360.667"/>
      <point x="96" y="324" type="curve" smooth="yes"/>
      <point x="96" y="284"/>
      <point x="105" y="249"/>
      <point x="123" y="219" type="curve"/>
      <point x="55" y="152" type="line"/>
    </contour>
    <contour>
      <point x="304" y="215" type="curve" smooth="yes"/>
      <point x="244.74" y="215"/>
      <point x="200" y="261.891"/>
      <point x="200" y="324" type="curve" smooth="yes"/>
      <point x="200" y="385.532"/>
      <point x="244.193" y="431"/>
      <point x="304" y="431" type="curve" smooth="yes"/>
      <point x="365.047" y="431"/>
      <point x="410" y="385.623"/>
      <point x="410" y="324" type="curve" smooth="yes"/>
      <point x="410" y="261.453"/>
      <point x="364.826" y="215"/>
    </contour>
  </outline>
</glyph>
<glyph name="ordmasculine" format="2">
  <advance width="387"/>
  <unicode hex="00BA"/>
  <outline>
    <contour>
      <point x="39" y="587" type="line" smooth="yes"/>
      <point x="39" y="489.515"/>
      <point x="93.9325" y="436"/>
      <point x="194" y="436" type="curve" smooth="yes"/>
      <point x="290.967" y="436"/>
      <point x="348" y="491.922"/>
      <point x="348" y="587" type="curve" smooth="yes"/>
      <point x="348" y="620" type="line" smooth="yes"/>
      <point x="348" y="712.805"/>
      <point x="291.89" y="766"/>
      <point x="194" y="766" type="curve" smooth="yes"/>
      <point x="95.0822" y="766"/>
      <point x="39" y="713.174"/>
      <point x="39" y="620" type="curve" smooth="yes"/>
    </contour>
    <contour>
      <point x="194" y="518" type="curve" smooth="yes"/>
      <point x="153.276" y="518"/>
      <point x="130" y="543.458"/>
      <point x="130" y="588" type="curve" smooth="yes"/>
      <point x="130" y="620" type="line" smooth="yes"/>
      <point x="130" y="660.667"/>
      <point x="153.333" y="684"/>
      <point x="194" y="684" type="curve" smooth="yes"/>
      <point x="234.333" y="684"/>
      <point x="257" y="660.974"/>
      <point x="257" y="620" type="curve" smooth="yes"/>
      <point x="257" y="588" type="line" smooth="yes"/>
      <point x="257" y="543.831"/>
      <point x="233.752" y="518"/>
    </contour>
  </outline>
</glyph>
<glyph name="divide" format="2">
  <advance width="541"/>
  <unicode hex="00F7"/>
  <outline>
    <contour>
      <point x="270" y="385" type="curve" smooth="yes"/>
      <point x="308.667" y="385"/>
      <point x="339" y="415.333"/>
      <point x="339" y="454" type="curve" smooth="yes"/>
      <point x="339" y="491.72"/>
      <point x="308.275" y="522"/>
      <point x="270" y="522" type="curve" smooth="yes"/>
      <point x="232.284" y="522"/>
      <point x="203" y="492.279"/>
      <point x="203" y="454" type="curve" smooth="yes"/>
      <point x="203" y="415.2"/>
      <point x="232.324" y="385"/>
    </contour>
    <contour>
      <point x="49" y="224" type="line"/>
      <point x="493" y="224" type="line"/>
      <point x="493" y="341" type="line"/>
      <point x="49" y="341" type="line"/>
    </contour>
    <contour>
      <point x="270" y="44" type="curve" smooth="yes"/>
      <point x="309.333" y="44"/>
      <point x="339" y="73.6667"/>
      <point x="339" y="113" type="curve" smooth="yes"/>
      <point x="339" y="150.72"/>
      <point x="308.275" y="181"/>
      <point x="270" y="181" type="curve" smooth="yes"/>
      <point x="232.284" y="181"/>
      <point x="203" y="151.279"/>
      <point x="203" y="113" type="curve" smooth="yes"/>
      <point x="203" y="74.1998"/>
      <point x="232.324" y="44"/>
    </contour>
  </outline>
</glyph>
<glyph name="oslash" format="2">
  <advance width="576"/>
  <unicode hex="00F8"/>
  <anchor x="290" y="602" name="top"/>
  <outline>
    <component base="o"/>
    <contour>
      <point x="47" y="-30" type="line"/>
      <point x="119" y="-30" type="line"/>
      <point x="530" y="559" type="line"/>
      <point x="460" y="559" type="line"/>
    </contour>
  </outline>
  <guideline angle="90" name="h1" x="290" y="0"/>
</glyph>
<glyph name="lslash" format="2">
  <advance width="321"/>
  <unicode hex="0142"/>
  <outline>
    <component base="l"/>
    <contour>
      <point x="0.5" y="279" type="line"/>
      <point x="248" y="396" type="line"/>
      <point x="248" y="509" type="line"/>
      <point x="0.5" y="392" type="line"/>
    </contour>
  </outline>
</glyph>
<glyph name="eng" format="2">
  <advance width="585"/>
  <unicode hex="014B"/>
  <outline>
    <contour>
      <point x="55" y="0" type="line"/>
      <point x="182" y="0" type="line"/>
      <point x="182" y="301" type="line" smooth="yes"/>
      <point x="182" y="381.947"/>
      <point x="222.881" y="426"/>
      <point x="298" y="426" type="curve" smooth="yes"/>
      <point x="368" y="426"/>
      <point x="403" y="386"/>
      <point x="403" y="306" type="curve" smooth="yes"/>
      <point x="403" y="7" type="line" smooth="yes"/>
      <point x="403" y="-44.6135"/>
      <point x="383.826" y="-63"/>
      <point x="330" y="-63" type="curve" smooth="yes"/>
      <point x="282" y="-63" type="line"/>
      <point x="282" y="-173" type="line"/>
      <point x="353" y="-173" type="line" smooth="yes"/>
      <point x="471.581" y="-173"/>
      <point x="530" y="-116.231"/>
      <point x="530" y="-1" type="curve" smooth="yes"/>
      <point x="530" y="332" type="line" smooth="yes"/>
      <point x="530" y="462.377"/>
      <point x="458.189" y="539"/>
      <point x="336" y="539" type="curve" smooth="yes"/>
      <point x="272.457" y="539"/>
      <point x="216.13" y="516.039"/>
      <point x="179" y="475" type="curve"/>
      <point x="179" y="532" type="line"/>
      <point x="55" y="532" type="line"/>
    </contour>
  </outline>
</glyph>
<glyph name="Tbar" format="2">
  <advance width="570"/>
  <unicode hex="0166"/>
  <outline>
    <component base="T"/>
    <contour>
      <point x="123" y="304" type="line"/>
      <point x="449" y="304" type="line"/>
      <point x="449" y="417" type="line"/>
      <point x="123" y="417" type="line"/>
    </contour>
  </outline>
</glyph>
<glyph name="florin" format="2">
  <advance width="480"/>
  <unicode hex="0192"/>
  <outline>
    <contour>
      <point x="9" y="-160" type="line"/>
      <point x="71" y="-160" type="line" smooth="yes"/>
      <point x="190.441" y="-160"/>
      <point x="244.846" y="-109.541"/>
      <point x="264" y="19" type="curve" smooth="yes"/>
      <point x="309" y="321" type="line"/>
      <point x="452" y="321" type="line"/>
      <point x="452" y="433" type="line"/>
      <point x="326" y="433" type="line"/>
      <point x="339" y="517" type="line" smooth="yes"/>
      <point x="347.486" y="571.833"/>
      <point x="367.893" y="590"/>
      <point x="421" y="590" type="curve" smooth="yes"/>
      <point x="471" y="590" type="line"/>
      <point x="471" y="707" type="line"/>
      <point x="403" y="707" type="line" smooth="yes"/>
      <point x="288.071" y="707"/>
      <point x="232.343" y="655.085"/>
      <point x="213" y="530" type="curve" smooth="yes"/>
      <point x="198" y="433" type="line"/>
      <point x="84" y="433" type="line"/>
      <point x="84" y="321" type="line"/>
      <point x="181" y="321" type="line"/>
      <point x="139" y="35" type="line" smooth="yes"/>
      <point x="130.711" y="-21.4467"/>
      <point x="108.4" y="-40"/>
      <point x="54" y="-40" type="curve" smooth="yes"/>
      <point x="9" y="-40" type="line"/>
    </contour>
  </outline>
</glyph>
<glyph name="Lbar" format="2">
  <advance width="583"/>
  <unicode hex="023D"/>
  <outline>
    <component base="L"/>
    <contour>
      <point x="7" y="357" type="line"/>
      <point x="324" y="357" type="line"/>
      <point x="324" y="475" type="line"/>
      <point x="7" y="475" type="line"/>
    </contour>
  </outline>
</glyph>
<glyph name="tilde" format="2">
  <advance width="512"/>
  <unicode hex="02DC"/>
  <outline>
    <contour>
      <point x="92" y="596" type="line"/>
      <point x="135.897" y="628.923"/>
      <point x="151.467" y="636"/>
      <point x="180" y="636" type="curve" smooth="yes"/>
      <point x="237.542" y="636"/>
      <point x="256.161" y="597"/>
      <point x="326" y="597" type="curve" smooth="yes"/>
      <point x="361.271" y="597"/>
      <point x="386.228" y="608.539"/>
      <point x="419" y="640" type="curve"/>
      <point x="419" y="734" type="line"/>
      <point x="374.882" y="700.176"/>
      <point x="359.829" y="693"/>
      <point x="333" y="693" type="curve" smooth="yes"/>
      <point x="276.516" y="693"/>
      <point x="256.043" y="732"/>
      <point x="186" y="732" type="curve" smooth="yes"/>
      <point x="151.814" y="732"/>
      <point x="125.809" y="720.104"/>
      <point x="92" y="689" type="curve"/>
    </contour>
  </outline>
</glyph>
<glyph name="uni0308" format="2">
  <unicode hex="0308"/>
  <anchor x="0" y="602" name="_top"/>
  <outline>
    <contour>
      <point x="-172" y="601" type="line"/>
      <point x="-62" y="601" type="line"/>
      <point x="-62" y="720" type="line"/>
      <point x="-172" y="720" type="line"/>
    </contour>
    <contour>
      <point x="62" y="601" type="line"/>
      <point x="172" y="601" type="line"/>
      <point x="172" y="720" type="line"/>
      <point x="62" y="720" type="line"/>
    </contour>
  </outline>
  <guideline angle="90" name="h1" x="0" y="0"/>
</glyph>
<glyph name="Djecyr" format="2">
  <advance width="783"/>
  <unicode hex="0402"/>
  <anchor x="285" y="-86" name="bottom"/>
  <anchor x="257" y="776" name="top"/>
  <anchor x="248" y="0" name="b.cedilla"/>
  <outline>
    <contour>
      <point x="218" y="0" type="line"/>
      <point x="352" y="0" type="line"/>
      <point x="352" y="590" type="line"/>
      <point x="564" y="590" type="line"/>
      <point x="564" y="707" type="line"/>
      <point x="6" y="707" type="line"/>
      <point x="6" y="590" type="line"/>
      <point x="218" y="590" type="line"/>
    </contour>
    <contour>
      <point x="441.27" y="0" type="line"/>
      <point x="486" y="0" type="line" smooth="yes"/>
      <point x="646.091" y="0"/>
      <point x="738" y="80.9675"/>
      <point x="738" y="222" type="curve" smooth="yes"/>
      <point x="738" y="359.53"/>
      <point x="643.515" y="439"/>
      <point x="480" y="439" type="curve" smooth="yes"/>
      <point x="294.82" y="439" type="line"/>
      <point x="294.82" y="321" type="line"/>
      <point x="491" y="321" type="line" smooth="yes"/>
      <point x="566.333" y="321"/>
      <point x="604" y="287.667"/>
      <point x="604" y="221" type="curve" smooth="yes"/>
      <point x="604" y="153.134"/>
      <point x="564.594" y="117.178"/>
      <point x="491" y="117.178" type="curve" smooth="yes"/>
      <point x="441.27" y="117.178" type="line"/>
    </contour>
  </outline>
</glyph>
<glyph name="Ljecyr" format="2">
  <advance width="1053"/>
  <unicode hex="0409"/>
  <outline>
    <component base="Elcyr"/>
    <contour>
      <point x="564.82" y="0" type="line"/>
      <point x="756" y="0" type="line" smooth="yes"/>
      <point x="916.091" y="0"/>
      <point x="1008" y="80.9675"/>
      <point x="1008" y="222" type="curve" smooth="yes"/>
      <point x="1008" y="359.53"/>
      <point x="913.515" y="439"/>
      <point x="750" y="439" type="curve" smooth="yes"/>
      <point x="564.82" y="439" type="line"/>
      <point x="564.82" y="321" type="line"/>
      <point x="761" y="321" type="line" smooth="yes"/>
      <point x="836.333" y="321"/>
      <point x="874" y="287.667"/>
      <point x="874" y="221" type="curve" smooth="yes"/>
      <point x="874" y="153.134"/>
      <point x="834.594" y="116.867"/>
      <point x="761" y="117" type="curve" smooth="yes"/>
      <point x="564.82" y="117.356" type="line"/>
    </contour>
  </outline>
</glyph>
<glyph name="Gecyr" format="2">
  <advance width="595"/>
  <unicode hex="0413"/>
  <anchor x="319" y="776" name="top"/>
  <outline>
    <contour>
      <point x="174.557" y="590" type="line"/>
      <point x="565" y="590" type="line"/>
      <point x="565" y="707" type="line"/>
      <point x="174.557" y="707" type="line"/>
    </contour>
    <contour>
      <point x="60" y="0" type="line"/>
      <point x="195" y="0" type="line"/>
      <point x="195" y="707.01" type="line"/>
      <point x="60" y="707" type="line"/>
    </contour>
  </outline>
  <guideline angle="90" name="h1" x="319" y="0"/>
</glyph>
<glyph name="Pecyr" format="2">
  <advance width="680"/>
  <unicode hex="041F"/>
  <outline>
    <contour>
      <point x="174.557" y="590" type="line"/>
      <point x="565" y="590" type="line"/>
      <point x="565" y="707" type="line"/>
      <point x="174.557" y="707" type="line"/>
    </contour>
    <contour>
      <point x="60" y="0" type="line"/>
      <point x="195" y="0" type="line"/>
      <point x="195" y="707.01" type="line"/>
      <point x="60" y="707" type="line"/>
    </contour>
    <contour>
      <point x="484.103" y="0" type="line"/>
      <point x="619.103" y="0" type="line"/>
      <point x="619.103" y="707.01" type="line"/>
      <point x="484.103" y="707" type="line"/>
    </contour>
  </outline>
</glyph>
<glyph name="Tsecyr" format="2">
  <advance width="671"/>
  <unicode hex="0426"/>
  <outline>
    <contour>
      <point x="456" y="0" type="line"/>
      <point x="591" y="0" type="line"/>
      <point x="591" y="707" type="line"/>
      <point x="456" y="707" type="line"/>
    </contour>
    <contour>
      <point x="125.557" y="-0.0673" type="line"/>
      <point x="346" y="-0.0673" type="line"/>
      <point x="346" y="116.933" type="line"/>
      <point x="125.557" y="116.933" type="line"/>
    </contour>
    <contour>
      <point x="60" y="0" type="line"/>
      <point x="195" y="0" type="line"/>
      <point x="195" y="707" type="line"/>
      <point x="60" y="707" type="line"/>
    </contour>
    <contour>
      <point x="325.55" y="-0.06" type="line"/>
      <point x="526" y="-0.06" type="line"/>
      <point x="526" y="-170" type="line"/>
      <point x="661" y="-170" type="line"/>
      <point x="661" y="116.93" type="line"/>
      <point x="325.55" y="116.93" type="line"/>
    </contour>
  </outline>
</glyph>
<glyph name="vecyr" format="2">
  <advance width="583"/>
  <unicode hex="0432"/>
  <outline>
    <contour>
      <point x="161" y="0" type="line"/>
      <point x="348" y="0" type="line" smooth="yes"/>
      <point x="457.193" y="0"/>
      <point x="528" y="65.1017"/>
      <point x="528" y="165.496" type="curve" smooth="yes"/>
      <point x="528" y="226"/>
      <point x="486.994" y="275.567"/>
      <point x="425" y="289" type="curve"/>
      <point x="425" y="292" type="line"/>
      <point x="482.012" y="308.456"/>
      <point x="498" y="356"/>
      <point x="498" y="407" type="curve" smooth="yes"/>
      <point x="498" y="484.706"/>
      <point x="437.842" y="532"/>
      <point x="339" y="532" type="curve" smooth="yes"/>
      <point x="161" y="532" type="line"/>
      <point x="161" y="419" type="line"/>
      <point x="313" y="419" type="line" smooth="yes"/>
      <point x="348.836" y="419"/>
      <point x="372" y="403.688"/>
      <point x="372" y="380" type="curve" smooth="yes"/>
      <point x="372" y="347.465"/>
      <point x="349.218" y="327"/>
      <point x="313" y="327" type="curve" smooth="yes"/>
      <point x="161" y="327" type="line"/>
      <point x="161" y="239" type="line"/>
      <point x="343" y="239" type="line" smooth="yes"/>
      <point x="378.918" y="239"/>
      <point x="402" y="215.006"/>
      <point x="402" y="177.669" type="curve" smooth="yes"/>
      <point x="402" y="137.588"/>
      <point x="379.011" y="112"/>
      <point x="343" y="112" type="curve" smooth="yes"/>
      <point x="161" y="112" type="line"/>
    </contour>
    <contour>
      <point x="55" y="0" type="line"/>
      <point x="181" y="0" type="line"/>
      <point x="181" y="532" type="line"/>
      <point x="55" y="532" type="line"/>
    </contour>
  </outline>
</glyph>
<glyph name="zecyr" format="2">
  <advance width="595"/>
  <unicode hex="0437"/>
  <outline>
    <contour>
      <point x="47" y="182" type="line"/>
      <point x="47" y="175" type="line" smooth="yes"/>
      <point x="47" y="61.7316"/>
      <point x="147.716" y="-9"/>
      <point x="309" y="-9" type="curve" smooth="yes"/>
      <point x="440.997" y="-9"/>
      <point x="540" y="65.5734"/>
      <point x="540" y="165" type="curve" smooth="yes"/>
      <point x="540" y="177" type="line" smooth="yes"/>
      <point x="540" y="230.034"/>
      <point x="521.022" y="266.332"/>
      <point x="462.669" y="295.905" type="curve"/>
      <point x="462.669" y="298.905" type="line"/>
      <point x="509.767" y="319.431"/>
      <point x="530" y="358.666"/>
      <point x="530" y="400" type="curve" smooth="yes"/>
      <point x="530" y="407" type="line" smooth="yes"/>
      <point x="530" y="488.928"/>
      <point x="441.153" y="542"/>
      <point x="304" y="542" type="curve" smooth="yes"/>
      <point x="150.811" y="542"/>
      <point x="47" y="467.676"/>
      <point x="47" y="358" type="curve" smooth="yes"/>
      <point x="47" y="349" type="line"/>
      <point x="181" y="349" type="line"/>
      <point x="181" y="358" type="line" smooth="yes"/>
      <point x="181" y="397.182"/>
      <point x="207.347" y="429"/>
      <point x="294.443" y="429" type="curve" smooth="yes"/>
      <point x="371.504" y="429"/>
      <point x="403" y="406.63"/>
      <point x="403" y="380" type="curve" smooth="yes"/>
      <point x="403" y="374" type="line" smooth="yes"/>
      <point x="403" y="346.93"/>
      <point x="391.057" y="327"/>
      <point x="355" y="327" type="curve" smooth="yes"/>
      <point x="251" y="327" type="line"/>
      <point x="251" y="239" type="line"/>
      <point x="355" y="239" type="line" smooth="yes"/>
      <point x="391.054" y="239"/>
      <point x="414" y="215.276"/>
      <point x="414" y="178" type="curve" smooth="yes"/>
      <point x="414" y="170" type="line" smooth="yes"/>
      <point x="414" y="128.553"/>
      <point x="373.078" y="104"/>
      <point x="304" y="104" type="curve" smooth="yes"/>
      <point x="226.242" y="104"/>
      <point x="181" y="132.856"/>
      <point x="181" y="175" type="curve" smooth="yes"/>
      <point x="181" y="182" type="line"/>
    </contour>
  </outline>
</glyph>
<glyph name="tecyr" format="2">
  <advance width="416"/>
  <unicode hex="0442"/>
  <anchor x="208" y="602" name="top"/>
  <outline>
    <contour>
      <point x="18" y="419.301" type="line"/>
      <point x="398" y="419" type="line"/>
      <point x="398" y="532" type="line"/>
      <point x="18" y="532" type="line"/>
    </contour>
    <contour>
      <point x="144" y="0" type="line"/>
      <point x="271" y="0" type="line"/>
      <point x="271" y="532.031" type="line"/>
      <point x="144" y="532" type="line"/>
    </contour>
  </outline>
  <guideline angle="90" name="h1" x="208" y="0"/>
</glyph>
<glyph name="efcyr" format="2">
  <advance width="937"/>
  <unicode hex="0444"/>
  <outline>
    <contour>
      <point x="404" y="-160" type="line"/>
      <point x="534" y="-160" type="line"/>
      <point x="534" y="54" type="line"/>
      <point x="569" y="12"/>
      <point x="619" y="-9"/>
      <point x="682" y="-9" type="curve" smooth="yes"/>
      <point x="808" y="-9"/>
      <point x="891" y="89"/>
      <point x="891" y="237" type="curve" smooth="yes"/>
      <point x="891" y="303" type="line" smooth="yes"/>
      <point x="891" y="453"/>
      <point x="814" y="542"/>
      <point x="683" y="542" type="curve" smooth="yes"/>
      <point x="621" y="542"/>
      <point x="570" y="519"/>
      <point x="531" y="472" type="curve"/>
      <point x="531" y="707" type="line"/>
      <point x="407" y="707" type="line"/>
      <point x="407" y="472" type="line"/>
      <point x="368" y="519"/>
      <point x="317" y="542"/>
      <point x="255" y="542" type="curve" smooth="yes"/>
      <point x="124" y="542"/>
      <point x="47" y="453"/>
      <point x="47" y="303" type="curve" smooth="yes"/>
      <point x="47" y="237" type="line" smooth="yes"/>
      <point x="47" y="89"/>
      <point x="130" y="-9"/>
      <point x="256" y="-9" type="curve" smooth="yes"/>
      <point x="319" y="-9"/>
      <point x="369" y="12"/>
      <point x="404" y="54" type="curve"/>
    </contour>
    <contour>
      <point x="286" y="104" type="curve" smooth="yes"/>
      <point x="213" y="104"/>
      <point x="174" y="153"/>
      <point x="174" y="242" type="curve" smooth="yes"/>
      <point x="174" y="297" type="line" smooth="yes"/>
      <point x="174" y="385"/>
      <point x="212" y="429"/>
      <point x="288" y="429" type="curve" smooth="yes"/>
      <point x="360" y="429"/>
      <point x="408.515" y="380"/>
      <point x="408.515" y="299" type="curve" smooth="yes"/>
      <point x="408.515" y="231" type="line" smooth="yes"/>
      <point x="408.515" y="154"/>
      <point x="358" y="104"/>
    </contour>
    <contour>
      <point x="652" y="104" type="curve" smooth="yes"/>
      <point x="580" y="104"/>
      <point x="528.515" y="154"/>
      <point x="528.515" y="231" type="curve" smooth="yes"/>
      <point x="528.515" y="299" type="line" smooth="yes"/>
      <point x="528.515" y="380"/>
      <point x="578" y="429"/>
      <point x="650" y="429" type="curve" smooth="yes"/>
      <point x="726" y="429"/>
      <point x="764" y="385"/>
      <point x="764" y="297" type="curve" smooth="yes"/>
      <point x="764" y="242" type="line" smooth="yes"/>
      <point x="764" y="153"/>
      <point x="725" y="104"/>
    </contour>
  </outline>
</glyph>
<glyph name="njecyr" format="2">
  <advance width="884"/>
  <unicode hex="045A"/>
  <outline>
    <contour>
      <point x="402" y="0" type="line"/>
      <point x="528" y="0" type="line"/>
      <point x="528" y="532" type="line"/>
      <point x="402" y="532" type="line"/>
    </contour>
    <contour>
      <point x="55" y="0" type="line"/>
      <point x="181" y="0" type="line"/>
      <point x="181" y="532" type="line"/>
      <point x="55" y="532" type="line"/>
    </contour>
    <contour>
      <point x="161" y="227" type="line"/>
      <point x="422" y="227" type="line"/>
      <point x="422" y="339" type="line"/>
      <point x="161" y="339" type="line"/>
    </contour>
    <contour>
      <point x="471" y="0" type="line"/>
      <point x="658" y="0" type="line" smooth="yes"/>
      <point x="767.193" y="0"/>
      <point x="838" y="67.4908"/>
      <point x="838" y="171.569" type="curve" smooth="yes"/>
      <point x="838" y="256.304"/>
      <point x="785.668" y="339"/>
      <point x="653" y="339" type="curve" smooth="yes"/>
      <point x="471" y="339" type="line"/>
      <point x="471" y="227" type="line"/>
      <point x="653" y="227" type="line" smooth="yes"/>
      <point x="688.918" y="227"/>
      <point x="712" y="205.273"/>
      <point x="712" y="171.464" type="curve" smooth="yes"/>
      <point x="712" y="135.17"/>
      <point x="689.011" y="112"/>
      <point x="653" y="112" type="curve" smooth="yes"/>
      <point x="471" y="112" type="line"/>
    </contour>
  </outline>
</glyph>
<glyph name="quotedblleft" format="2">
  <advance width="407"/>
  <unicode hex="201C"/>
  <outline>
    <contour>
      <point x="39" y="443" type="line"/>
      <point x="159" y="443" type="line"/>
      <point x="159" y="750" type="line"/>
      <point x="39" y="648" type="line"/>
    </contour>
    <contour>
      <point x="249" y="443" type="line"/>
      <point x="369" y="443" type="line"/>
      <point x="369" y="750" type="line"/>
      <point x="249" y="648" type="line"/>
    </contour>
  </outline>
</glyph>
<glyph name="dagger" format="2">
  <advance width="614"/>
  <unicode hex="2020"/>
  <outline>
    <contour>
      <point x="242" y="-160" type="line"/>
      <point x="376" y="-160" type="line"/>
      <point x="376" y="369" type="line"/>
      <point x="559" y="369" type="line"/>
      <point x="559" y="485" type="line"/>
      <point x="376" y="485" type="line"/>
      <point x="376" y="707" type="line"/>
      <point x="242" y="707" type="line"/>
      <point x="242" y="485" type="line"/>
      <point x="55" y="485" type="line"/>
      <point x="55" y="369" type="line"/>
      <point x="242" y="369" type="line"/>
    </contour>
  </outline>
</glyph>
<glyph name="second" format="2">
  <advance width="472"/>
  <unicode hex="2033"/>
  <outline>
    <contour>
      <point x="240" y="602" type="line"/>
      <point x="355" y="602" type="line"/>
      <point x="437" y="738" type="line"/>
      <point x="285" y="738" type="line"/>
    </contour>
    <contour>
      <point x="40" y="602" type="line"/>
      <point x="155" y="602" type="line"/>
      <point x="237" y="738" type="line"/>
      <point x="85" y="738" type="line"/>
    </contour>
  </outline>
</glyph>
<glyph name="Euro" format="2">
  <advance width="617"/>
  <unicode hex="20AC"/>
  <outline>
    <contour>
      <point x="28" y="247" type="line"/>
      <point x="90" y="247" type="line"/>
      <point x="90" y="234" type="line" smooth="yes"/>
      <point x="90" y="79.9847"/>
      <point x="181.356" y="-11"/>
      <point x="336" y="-11" type="curve" smooth="yes"/>
      <point x="475.572" y="-11"/>
      <point x="561.9" y="57.6946"/>
      <point x="571" y="176" type="curve"/>
      <point x="459" y="176" type="line"/>
      <point x="448.409" y="121.719"/>
      <point x="411.173" y="97"/>
      <point x="340" y="97" type="curve" smooth="yes"/>
      <point x="255.304" y="97"/>
      <point x="215" y="141.173"/>
      <point x="215" y="234" type="curve" smooth="yes"/>
      <point x="215" y="247" type="line"/>
      <point x="413" y="247" type="line"/>
      <point x="429" y="330" type="line"/>
      <point x="215" y="330" type="line"/>
      <point x="215" y="381" type="line"/>
      <point x="437" y="381" type="line"/>
      <point x="453" y="464" type="line"/>
      <point x="215" y="464" type="line"/>
      <point x="215" y="477" type="line" smooth="yes"/>
      <point x="215" y="564.333"/>
      <point x="256.333" y="608"/>
      <point x="339" y="608" type="curve" smooth="yes"/>
      <point x="407.84" y="608"/>
      <point x="445.256" y="583.375"/>
      <point x="456" y="531" type="curve"/>
      <point x="570" y="531" type="line"/>
      <point x="563.333" y="647.009"/>
      <point x="475.656" y="717"/>
      <point x="337" y="717" type="curve" smooth="yes"/>
      <point x="182.156" y="717"/>
      <point x="90" y="627.456"/>
      <point x="90" y="477" type="curve" smooth="yes"/>
      <point x="90" y="464" type="line"/>
      <point x="28" y="464" type="line"/>
      <point x="28" y="381" type="line"/>
      <point x="90" y="381" type="line"/>
      <point x="90" y="330" type="line"/>
      <point x="28" y="330" type="line"/>
    </contour>
  </outline>
</glyph>
<glyph name="estimated" format="2">
  <advance width="909"/>
  <unicode hex="212E"/>
  <outline>
    <contour>
      <point x="717.298" y="129.661" type="line"/>
      <point x="655.12" y="57.9171"/>
      <point x="562.332" y="12.0013"/>
      <point x="459.022" y="12.0013" type="curve" smooth="yes"/>
      <point x="368.147" y="12.0013"/>
      <point x="285.559" y="47.0536"/>
      <point x="224.66" y="104.789" type="curve" smooth="yes"/>
      <point x="211.897" y="116.889"/>
      <point x="203.615" y="134.443"/>
      <point x="203.615" y="153.575" type="curve" smooth="yes"/>
      <point x="203.615" y="329.586" type="line" smooth="yes"/>
      <point x="203.615" y="335.325"/>
      <point x="208.398" y="340.108"/>
      <point x="214.138" y="340.108" type="curve" smooth="yes"/>
      <point x="862.698" y="340.108" type="line"/>
      <point x="862.698" y="351.587" type="line" smooth="yes"/>
      <point x="862.698" y="553.425"/>
      <point x="681.905" y="717"/>
      <point x="459.022" y="717" type="curve" smooth="yes"/>
      <point x="236.139" y="717"/>
      <point x="56.302" y="553.425"/>
      <point x="56.302" y="351.587" type="curve" smooth="yes"/>
      <point x="56.302" y="151.662"/>
      <point x="236.139" y="-10"/>
      <point x="459.022" y="-10" type="curve" smooth="yes"/>
      <point x="589.116" y="-10"/>
      <point x="702.949" y="44.525"/>
      <point x="777.563" y="129.661" type="curve"/>
    </contour>
    <contour>
      <point x="214.137" y="362.109" type="line" smooth="yes"/>
      <point x="208.398" y="362.109"/>
      <point x="203.615" y="366.892"/>
      <point x="203.615" y="372.632" type="curve" smooth="yes"/>
      <point x="203.615" y="552.468" type="line" smooth="yes"/>
      <point x="203.615" y="571.6"/>
      <point x="211.98" y="589.068"/>
      <point x="224.66" y="601.254" type="curve" smooth="yes"/>
      <point x="285.639" y="659.858"/>
      <point x="368.147" y="694.999"/>
      <point x="459.022" y="694.999" type="curve" smooth="yes"/>
      <point x="549.897" y="694.999"/>
      <point x="633.361" y="659.858"/>
      <point x="694.34" y="601.254" type="curve" smooth="yes"/>
      <point x="707.02" y="589.068"/>
      <point x="715.385" y="571.6"/>
      <point x="715.385" y="552.468" type="curve" smooth="yes"/>
      <point x="715.385" y="372.632" type="line" smooth="yes"/>
      <point x="715.385" y="366.892"/>
      <point x="710.602" y="362.109"/>
      <point x="704.863" y="362.109" type="curve" smooth="yes"/>
    </contour>
  </outline>
</glyph>
<glyph name="Cacute.loclPLK" format="2">
  <advance width="689"/>
  <outline>
    <component base="C"/>
    <contour>
      <point x="296" y="789" type="line"/>
      <point x="411" y="789" type="line"/>
      <point x="493" y="925" type="line"/>
      <point x="341" y="925" type="line"/>
    </contour>
  </outline>
</glyph>
<glyph name="Nacute.loclPLK" format="2">
  <advance width="715"/>
  <outline>
    <component base="N"/>
    <contour>
      <point x="310" y="789" type="line"/>
      <point x="425" y="789" type="line"/>
      <point x="507" y="925" type="line"/>
      <point x="355" y="925" type="line"/>
    </contour>
  </outline>
</glyph>
<glyph name="Sacute.loclPLK" format="2">
  <advance width="622"/>
  <outline>
    <component base="S"/>
    <contour>
      <point x="263" y="789" type="line"/>
      <point x="378" y="789" type="line"/>
      <point x="460" y="925" type="line"/>
      <point x="308" y="925" type="line"/>
    </contour>
  </outline>
</glyph>
<glyph name="Zacute.loclPLK" format="2">
  <advance width="574"/>
  <outline>
    <component base="Z"/>
    <contour>
      <point x="239" y="789" type="line"/>
      <point x="354" y="789" type="line"/>
      <point x="436" y="925" type="line"/>
      <point x="284" y="925" type="line"/>
    </contour>
  </outline>
</glyph>
<glyph name="cacute.loclPLK" format="2">
  <advance width="572"/>
  <outline>
    <component base="c"/>
    <contour>
      <point x="238" y="602" type="line"/>
      <point x="353" y="602" type="line"/>
      <point x="435" y="738" type="line"/>
      <point x="283" y="738" type="line"/>
    </contour>
  </outline>
</glyph>
<glyph name="four.sups" format="2">
  <advance width="399"/>
  <outline>
    <contour>
      <point x="30" y="498" type="line"/>
      <point x="236" y="498" type="line"/>
      <point x="236" y="440" type="line"/>
      <point x="341" y="440" type="line"/>
      <point x="341" y="498" type="line"/>
      <point x="369" y="498" type="line"/>
      <point x="369" y="590" type="line"/>
      <point x="341" y="590" type="line"/>
      <point x="341" y="680" type="line"/>
      <point x="236" y="680" type="line"/>
      <point x="236" y="590" type="line"/>
      <point x="135" y="590" type="line"/>
      <point x="253" y="869" type="line"/>
      <point x="147" y="869" type="line"/>
      <point x="30" y="590" type="line"/>
    </contour>
  </outline>
</glyph>
<glyph name="four.tlf" format="2">
  <advance width="562"/>
  <outline>
    <contour>
      <point x="27" y="113" type="line"/>
      <point x="347" y="113" type="line"/>
      <point x="347" y="0" type="line"/>
      <point x="482" y="0" type="line"/>
      <point x="482" y="113" type="line"/>
      <point x="546" y="113" type="line"/>
      <point x="546" y="230" type="line"/>
      <point x="482" y="230" type="line"/>
      <point x="482" y="396" type="line"/>
      <point x="347" y="396" type="line"/>
      <point x="347" y="230" type="line"/>
      <point x="163" y="230" type="line"/>
      <point x="390" y="707" type="line"/>
      <point x="253" y="707" type="line"/>
      <point x="27" y="230" type="line"/>
    </contour>
  </outline>
</glyph>
<glyph name="hardcyr.loclBGR" format="2">
  <advance width="684"/>
  <outline>
    <contour>
      <point x="165" y="196.985" type="line"/>
      <point x="291" y="196.985" type="line"/>
      <point x="291" y="532" type="line"/>
      <point x="165" y="532" type="line"/>
    </contour>
    <contour>
      <point x="225.432" y="419" type="line"/>
      <point x="225.432" y="532" type="line"/>
      <point x="0" y="532" type="line"/>
      <point x="0" y="419.301" type="line"/>
    </contour>
    <contour>
      <point x="165" y="196.6" type="line"/>
      <point x="165" y="74.0241"/>
      <point x="268.883" y="-9"/>
      <point x="403.883" y="-9" type="curve" smooth="yes"/>
      <point x="545.792" y="-9"/>
      <point x="638" y="76.0625"/>
      <point x="638" y="206.975" type="curve" smooth="yes"/>
      <point x="638" y="332.361"/>
      <point x="552.533" y="418"/>
      <point x="427.4" y="418" type="curve" smooth="yes"/>
      <point x="367.34" y="418"/>
      <point x="331.06" y="408.333"/>
      <point x="271" y="389" type="curve"/>
      <point x="271" y="277" type="line"/>
      <point x="331.06" y="298"/>
      <point x="367.34" y="305"/>
      <point x="411.397" y="305" type="curve" smooth="yes"/>
      <point x="473.609" y="305"/>
      <point x="512" y="267.799"/>
      <point x="512" y="207.513" type="curve" smooth="yes"/>
      <point x="512" y="146.908"/>
      <point x="469.732" y="104"/>
      <point x="410.03" y="104" type="curve" smooth="yes"/>
      <point x="335.997" y="104"/>
      <point x="291" y="137.972"/>
      <point x="291" y="196.6" type="curve"/>
    </contour>
  </outline>
</glyph>
<glyph name="shchacyr.loclBGR" format="2">
  <advance width="946"/>
  <outline>
    <component base="shacyr.loclBGR"/>
    <contour>
      <point x="819.795" y="-170" type="line"/>
      <point x="945.795" y="-170" type="line"/>
      <point x="945.795" y="113.107" type="line"/>
      <point x="799.795" y="113.107" type="line"/>
      <point x="799.795" y="-0.454842" type="line"/>
      <point x="819.795" y="-0.454842" type="line"/>
    </contour>
  </outline>
</glyph>
<glyph name="three.dnom" format="2">
  <advance width="365"/>
  <outline>
    <contour>
      <point x="20.3749" y="124" type="line"/>
      <point x="20.3749" y="116" type="line" smooth="yes"/>
      <point x="20.3749" y="36.0551"/>
      <point x="73.5812" y="-7"/>
      <point x="172.375" y="-7" type="curve" smooth="yes"/>
      <point x="263.698" y="-7"/>
      <point x="324.375" y="44.8947"/>
      <point x="324.375" y="123" type="curve" smooth="yes"/>
      <point x="324.375" y="131" type="line" smooth="yes"/>
      <point x="324.375" y="182.01"/>
      <point x="299.684" y="218.673"/>
      <point x="258.375" y="229" type="curve"/>
      <point x="294.997" y="244.695"/>
      <point x="316.375" y="275.287"/>
      <point x="316.375" y="312" type="curve" smooth="yes"/>
      <point x="316.375" y="319" type="line" smooth="yes"/>
      <point x="316.375" y="391.892"/>
      <point x="260.946" y="437"/>
      <point x="171.375" y="437" type="curve" smooth="yes"/>
      <point x="74.9003" y="437"/>
      <point x="22.3749" y="392.935"/>
      <point x="22.3749" y="312" type="curve" smooth="yes"/>
      <point x="22.3749" y="305" type="line"/>
      <point x="116.375" y="305" type="line"/>
      <point x="116.375" y="313" type="line" smooth="yes"/>
      <point x="116.375" y="338.333"/>
      <point x="133.042" y="351"/>
      <point x="166.375" y="351" type="curve" smooth="yes"/>
      <point x="199.042" y="351"/>
      <point x="215.375" y="337.667"/>
      <point x="215.375" y="311" type="curve" smooth="yes"/>
      <point x="215.375" y="303" type="line"/>
      <point x="214.708" y="276.333"/>
      <point x="196.042" y="263"/>
      <point x="159.375" y="263" type="curve" smooth="yes"/>
      <point x="136.375" y="263" type="line"/>
      <point x="136.375" y="176" type="line"/>
      <point x="160.375" y="176" type="line" smooth="yes"/>
      <point x="201.708" y="176"/>
      <point x="222.375" y="160.333"/>
      <point x="222.375" y="129" type="curve" smooth="yes"/>
      <point x="222.375" y="122" type="line" smooth="yes"/>
      <point x="222.375" y="94.3333"/>
      <point x="203.832" y="79"/>
      <point x="170.375" y="79" type="curve" smooth="yes"/>
      <point x="133.708" y="79"/>
      <point x="115.375" y="92"/>
      <point x="115.375" y="118" type="curve" smooth="yes"/>
      <point x="115.375" y="124" type="line"/>
    </contour>
  </outline>
</glyph>
<glyph name="tsecyr.loclBGR" format="2">
  <advance width="613"/>
  <outline>
    <component base="icyr.loclBGR"/>
    <contour>
      <point x="486.795" y="-170" type="line"/>
      <point x="612.795" y="-170" type="line"/>
      <point x="612.795" y="113.107" type="line"/>
      <point x="466.795" y="113.107" type="line"/>
      <point x="466.795" y="-0.454842" type="line"/>
      <point x="486.795" y="-0.454842" type="line"/>
    </contour>
  </outline>
</glyph>
<glyph name="two.dnom" format="2">
  <advance width="368"/>
  <outline>
    <contour>
      <point x="26.6613" y="0" type="line"/>
      <point x="327.661" y="0" type="line"/>
      <point x="327.661" y="91" type="line"/>
      <point x="175.661" y="91" type="line"/>
      <point x="257.661" y="176" type="line" smooth="yes"/>
      <point x="307.014" y="227.159"/>
      <point x="327.661" y="254.495"/>
      <point x="327.661" y="303" type="curve" smooth="yes"/>
      <point x="327.661" y="312" type="line" smooth="yes"/>
      <point x="327.661" y="387.592"/>
      <point x="267.581" y="437"/>
      <point x="175.661" y="437" type="curve" smooth="yes"/>
      <point x="80.0423" y="437"/>
      <point x="22.6613" y="389.745"/>
      <point x="22.6613" y="311" type="curve" smooth="yes"/>
      <point x="22.6613" y="301" type="line"/>
      <point x="123.661" y="301" type="line"/>
      <point x="123.661" y="308" type="line" smooth="yes"/>
      <point x="123.661" y="333.728"/>
      <point x="141.145" y="348"/>
      <point x="172.661" y="348" type="curve" smooth="yes"/>
      <point x="204.661" y="348"/>
      <point x="220.661" y="334"/>
      <point x="220.661" y="306" type="curve" smooth="yes"/>
      <point x="220.661" y="300" type="line" smooth="yes"/>
      <point x="220.661" y="281.241"/>
      <point x="208.505" y="264.994"/>
      <point x="184.661" y="241" type="curve" smooth="yes"/>
      <point x="26.6613" y="82" type="line"/>
    </contour>
  </outline>
</glyph>
<glyph name="two.numr" format="2">
  <advance width="368"/>
  <outline>
    <contour>
      <point x="26.6613" y="280" type="line"/>
      <point x="327.661" y="280" type="line"/>
      <point x="327.661" y="371" type="line"/>
      <point x="175.661" y="371" type="line"/>
      <point x="257.661" y="456" type="line" smooth="yes"/>
      <point x="307.014" y="507.159"/>
      <point x="327.661" y="534.495"/>
      <point x="327.661" y="583" type="curve" smooth="yes"/>
      <point x="327.661" y="592" type="line" smooth="yes"/>
      <point x="327.661" y="667.592"/>
      <point x="267.581" y="717"/>
      <point x="175.661" y="717" type="curve" smooth="yes"/>
      <point x="80.0423" y="717"/>
      <point x="22.6613" y="669.745"/>
      <point x="22.6613" y="591" type="curve" smooth="yes"/>
      <point x="22.6613" y="581" type="line"/>
      <point x="123.661" y="581" type="line"/>
      <point x="123.661" y="588" type="line" smooth="yes"/>
      <point x="123.661" y="613.728"/>
      <point x="141.145" y="628"/>
      <point x="172.661" y="628" type="curve" smooth="yes"/>
      <point x="204.661" y="628"/>
      <point x="220.661" y="614"/>
      <point x="220.661" y="586" type="curve" smooth="yes"/>
      <point x="220.661" y="580" type="line" smooth="yes"/>
      <point x="220.661" y="561.241"/>
      <point x="208.505" y="544.994"/>
      <point x="184.661" y="521" type="curve" smooth="yes"/>
      <point x="26.6613" y="362" type="line"/>
    </contour>
  </outline>
</glyph>
<glyph name="two.osf" format="2">
  <advance width="557"/>
  <outline>
    <contour>
      <point x="55" y="0" type="line"/>
      <point x="516" y="0" type="line"/>
      <point x="516" y="118" type="line"/>
      <point x="237" y="118" type="line"/>
      <point x="427" y="239" type="line" smooth="yes"/>
      <point x="486.492" y="276.887"/>
      <point x="515" y="322.564"/>
      <point x="515" y="380" type="curve" smooth="yes"/>
      <point x="515" y="390" type="line" smooth="yes"/>
      <point x="515" y="480.72"/>
      <point x="423.473" y="542"/>
      <point x="281" y="542" type="curve" smooth="yes"/>
      <point x="146.888" y="542"/>
      <point x="51" y="463.957"/>
      <point x="51" y="359" type="curve" smooth="yes"/>
      <point x="51" y="348" type="line"/>
      <point x="179" y="348" type="line"/>
      <point x="179" y="353" type="line" smooth="yes"/>
      <point x="179" y="402.163"/>
      <point x="221.052" y="435"/>
      <point x="284.012" y="435" type="curve" smooth="yes"/>
      <point x="341.518" y="435"/>
      <point x="380" y="406.801"/>
      <point x="380" y="364.66" type="curve" smooth="yes"/>
      <point x="380" y="362" type="line" smooth="yes"/>
      <point x="380" y="347.299"/>
      <point x="362.926" y="322.948"/>
      <point x="319" y="292" type="curve" smooth="yes"/>
      <point x="55" y="106" type="line"/>
    </contour>
  </outline>
</glyph>
<glyph name="zacute.loclPLK" format="2">
  <advance width="513"/>
  <outline>
    <component base="z"/>
    <contour>
      <point x="208" y="602" type="line"/>
      <point x="323" y="602" type="line"/>
      <point x="405" y="738" type="line"/>
      <point x="253" y="738" type="line"/>
    </contour>
  </outline>
</glyph>
<glyph name="zhecyr.loclBGR" format="2">
  <advance width="933"/>
  <outline>
    <contour>
      <point x="403" y="0" type="line"/>
      <point x="530" y="0" type="line"/>
      <point x="530" y="707" type="line"/>
      <point x="403" y="707" type="line"/>
    </contour>
    <contour>
      <point x="539" y="313.35" type="line"/>
      <point x="657.747" y="269.093" type="line"/>
      <point x="909" y="532" type="line"/>
      <point x="746" y="532" type="line"/>
    </contour>
    <contour>
      <point x="764" y="0" type="line"/>
      <point x="925" y="0" type="line"/>
      <point x="686" y="338" type="line"/>
      <point x="598" y="252" type="line"/>
    </contour>
    <contour>
      <point x="509" y="227" type="line"/>
      <point x="669" y="227" type="line"/>
      <point x="669" y="339" type="line"/>
      <point x="509" y="339" type="line"/>
    </contour>
    <contour>
      <point x="275.253" y="269.093" type="line"/>
      <point x="394" y="313.35" type="line"/>
      <point x="187" y="532" type="line"/>
      <point x="24" y="532" type="line"/>
    </contour>
    <contour>
      <point x="8" y="0" type="line"/>
      <point x="169" y="0" type="line"/>
      <point x="335" y="252" type="line"/>
      <point x="247" y="338" type="line"/>
    </contour>
    <contour>
      <point x="264" y="227" type="line"/>
      <point x="424" y="227" type="line"/>
      <point x="424" y="339" type="line"/>
      <point x="264" y="339" type="line"/>
    </contour>
  </outline>
</glyph>
